<svg width="109" height="128" viewBox="0 0 109 128" fill="none" xmlns="http://www.w3.org/2000/svg">
<path d="M34.0208 40.9546C34.6316 40.3366 41.4932 37.1601 41.4932 37.1601C41.4932 37.1601 45.7316 35.8158 48.0149 35.2523C49.1102 34.9819 51.3889 34.6045 51.5368 34.8563C51.7089 35.1493 50.3349 38.0487 49.9525 39.7058C49.6062 41.2069 49.4589 42.7495 49.3179 44.2836C49.2185 45.3658 49.1065 46.4555 49.1696 47.5404C49.2863 49.548 49.7159 51.5291 50.1405 53.4947C50.6476 55.8427 51.4725 58.1013 52.0196 60.4518C52.5159 62.5845 52.9849 64.7077 53.5541 66.8135C54.3509 69.7613 55.4696 72.6618 56.1849 75.651C56.8076 78.2533 57.4416 80.8824 57.7508 83.5483C58.0242 85.9052 58.1895 88.431 58.0013 90.6621C57.8356 92.6266 57.6504 94.3951 56.8112 96.021C55.7395 98.0975 53.9866 99.827 52.1135 101.223C49.7767 102.965 47.0599 104.326 44.2213 104.984C42.3703 105.413 38.5214 105.046 38.5214 105.046C38.5214 105.046 41.1098 101.314 41.9977 99.2175C42.7487 97.444 43.0524 95.5404 43.2191 93.6392C43.5034 90.3983 42.7733 87.2092 42.3109 84.0183C41.8777 81.0289 41.0876 78.1129 40.4005 75.1809C39.7182 72.2694 39.1325 69.3378 38.2082 66.5002C37.6363 64.7444 36.7371 63.1443 36.1725 61.3607C35.6582 59.7356 35.0554 58.0901 34.677 56.4074C34.2878 54.6766 34.0816 52.9113 33.8863 51.1443C33.7188 49.6284 33.7435 47.9483 33.761 46.3495C33.7808 44.5492 33.5693 41.4113 34.0208 40.9546Z" fill="url(#paint0_linear_5_29)"/>
<g filter="url(#filter0_d_5_29)">
<path d="M89.0063 11.6579C88.5798 10.8282 85.3123 12.1629 83.6353 12.8331C81.6748 13.6166 79.1878 14.435 77.0898 15.0268C73.0122 16.177 65.7389 16.584 59.8804 17.6749C55.806 18.4336 51.5577 18.7201 47.729 20.3073C45.3426 21.2966 43.0443 22.6661 41.2148 24.5067C38.9359 26.7994 37.2886 29.71 35.9533 32.6547C35.1682 34.386 34.3874 38.2016 34.3874 38.2016C34.3874 38.2016 33.5791 41.8397 33.9489 41.4921C34.2099 41.2469 35.3007 40.5221 35.9533 40.1132C36.841 39.5571 37.6258 39.1572 38.584 38.7343C40.1745 38.0324 41.6951 37.1528 43.3444 36.6033C45.8627 35.7644 48.4984 35.3146 51.1113 34.8484C54.2625 34.2861 57.4608 34.0303 60.6321 33.5948C64.4349 33.0727 68.2743 32.7499 72.0319 31.9652C75.2549 31.2922 78.5373 30.6559 81.5526 29.3328C83.9402 28.2852 86.757 27.3741 88.1921 25.1961C89.3315 23.4669 89.5074 19.0225 89.5074 19.0225C89.5074 19.0225 89.7809 13.1646 89.0063 11.6579Z" fill="#24243E"/>
</g>
<g filter="url(#filter1_d_5_29)">
<path d="M21.4949 81.1474C20.917 83.3658 20.8714 84.5845 20.8303 86.7292C20.7891 88.8739 20.7 91.6253 21.0393 94.0393C21.269 95.6734 21.5809 97.1653 22.2675 98.8349C22.9541 100.505 24.0141 102.411 25.226 103.972C26.4972 105.608 28.0423 107.102 29.6776 108.311C31.313 109.52 33.237 110.626 35.2611 111.117C37.0791 111.558 39.4716 111.382 40.8727 111.174C41.8968 111.022 44.3171 110.573 45.9383 109.948C47.252 109.442 48.5197 108.771 49.6491 107.93C51.4252 106.608 53.0617 105.04 54.3627 103.248C55.4607 101.735 56.4916 99.7664 56.8874 98.2396C57.2833 96.7128 57.6412 93.9423 57.5425 93.9734C57.4284 94.0094 57.1875 94.9479 56.9744 95.4201C56.72 95.9841 56.3841 96.7157 56.1282 97.0722C55.5864 97.8272 54.6702 98.7776 54.1624 99.3504C53.0607 100.593 51.7793 101.434 50.4121 102.21C48.4545 103.32 46.3526 104.288 44.1438 104.718C42.0472 105.126 39.8387 105.12 37.7361 104.743C36.1617 104.462 34.5889 103.925 33.2421 103.061C31.8289 102.155 30.5218 100.536 29.668 99.5128C28.5838 98.2133 28.0942 96.3771 27.6494 94.6929C27.3442 93.5373 27.2099 92.3281 27.2207 91.1329C27.2311 89.9827 27.3455 88.8926 27.695 87.7151C28.0445 86.5376 28.4807 85.2609 29.0444 84.0979C29.6081 82.9349 30.2931 81.9694 31.249 80.9281C32.2049 79.8867 33.9455 78.6929 35.2427 77.8435C37.3952 76.434 39.9572 75.7532 42.4145 74.9917C45.6249 73.9969 48.9575 73.4482 52.2485 72.7667C54.3325 72.3351 56.4499 72.0673 58.5232 71.5866C61.7308 70.843 65.0286 70.2773 68.044 68.9542C70.4316 67.9066 71.963 67.5334 73.1775 65.9698C74.7911 63.8926 75.3344 58.378 75.3344 58.378C75.3344 58.378 75.6079 52.52 74.8333 51.0134C74.4068 50.1837 71.5403 51.4777 69.4623 52.1886C67.4348 52.8822 65.3769 53.4163 62.3853 54.205C59.3937 54.9938 56.4158 55.8185 51.4968 56.8468C47.4401 57.6948 41.87 59.5407 38.7816 60.7641C35.6933 61.9874 35.0378 62.2815 33.3949 63.4278C31.4999 64.7501 29.9104 66.4808 28.3659 68.2C27.0508 69.6639 25.5653 71.5064 24.7824 72.892C23.9995 74.2777 23.2107 75.8767 22.6911 77.4729" fill="#24243E"/>
</g>
<defs>
<filter id="filter0_d_5_29" x="31.8521" y="11.3943" width="59.7022" height="34.1212" filterUnits="userSpaceOnUse" color-interpolation-filters="sRGB">
<feFlood flood-opacity="0" result="BackgroundImageFix"/>
<feColorMatrix in="SourceAlpha" type="matrix" values="0 0 0 0 0 0 0 0 0 0 0 0 0 0 0 0 0 0 127 0" result="hardAlpha"/>
<feOffset dy="2"/>
<feGaussianBlur stdDeviation="1"/>
<feComposite in2="hardAlpha" operator="out"/>
<feColorMatrix type="matrix" values="0 0 0 0 0 0 0 0 0 0 0 0 0 0 0 0 0 0 0.25 0"/>
<feBlend mode="normal" in2="BackgroundImageFix" result="effect1_dropShadow_5_29"/>
<feBlend mode="normal" in="SourceGraphic" in2="effect1_dropShadow_5_29" result="shape"/>
</filter>
<filter id="filter1_d_5_29" x="18.7883" y="50.745" width="58.593" height="64.6463" filterUnits="userSpaceOnUse" color-interpolation-filters="sRGB">
<feFlood flood-opacity="0" result="BackgroundImageFix"/>
<feColorMatrix in="SourceAlpha" type="matrix" values="0 0 0 0 0 0 0 0 0 0 0 0 0 0 0 0 0 0 127 0" result="hardAlpha"/>
<feOffset dy="2"/>
<feGaussianBlur stdDeviation="1"/>
<feComposite in2="hardAlpha" operator="out"/>
<feColorMatrix type="matrix" values="0 0 0 0 0 0 0 0 0 0 0 0 0 0 0 0 0 0 0.25 0"/>
<feBlend mode="normal" in2="BackgroundImageFix" result="effect1_dropShadow_5_29"/>
<feBlend mode="normal" in="SourceGraphic" in2="effect1_dropShadow_5_29" result="shape"/>
</filter>
<linearGradient id="paint0_linear_5_29" x1="50.7361" y1="35.7684" x2="40.1751" y2="104.727" gradientUnits="userSpaceOnUse">
<stop stop-color="#654EA3"/>
<stop offset="1" stop-color="#EAAFC8"/>
</linearGradient>
</defs>
</svg>
