<svg width="100" height="100" viewBox="0 0 100 100" fill="none" xmlns="http://www.w3.org/2000/svg">
<path d="M18 8C12.501 8 8 12.501 8 18V82C8 87.499 12.501 92 18 92H82C87.499 92 92 87.499 92 82V18C92 12.501 87.499 8 82 8H18ZM18 12H82C85.337 12 88 14.663 88 18V82C88 85.337 85.337 88 82 88H18C14.663 88 12 85.337 12 82V18C12 14.663 14.663 12 18 12ZM28 22.0234C25.8096 22.0234 23.8384 22.6782 22.3789 23.9063C20.9194 25.1343 20.0234 26.969 20.0234 28.9336C20.0234 32.668 23.2626 35.5792 27.3828 35.8672L27.3906 35.8711C27.587 35.938 27.7926 35.9736 28 35.9766C32.546 35.9766 35.9766 32.7922 35.9766 28.9336C35.9762 28.8984 35.9749 28.8632 35.9727 28.8281C35.7692 25.0277 32.3809 22.0234 28 22.0234ZM28 25.9766C30.7845 25.9766 31.8839 27.2201 32.0039 28.9844C31.9796 30.6969 30.9202 32.0234 28 32.0234C25.2292 32.0234 23.9766 30.6045 23.9766 28.9336C23.9766 28.0982 24.2814 27.4686 24.9219 26.9297C25.5623 26.3908 26.5904 25.9766 28 25.9766ZM22 38C21.4696 38.0001 20.9609 38.2108 20.5858 38.5858C20.2108 38.9609 20.0001 39.4696 20 40V78C20.0001 78.5304 20.2108 79.0391 20.5858 79.4142C20.9609 79.7892 21.4696 80 22 80H34C34.5304 80 35.0391 79.7892 35.4142 79.4142C35.7892 79.0391 36 78.5304 36 78V66.2695V40C36 39.4696 35.7892 38.9609 35.4142 38.5858C35.0391 38.2108 34.5304 38.0001 34 38H22ZM40 38C39.4696 38.0001 38.9609 38.2108 38.5858 38.5858C38.2108 38.9609 38.0001 39.4696 38 40V78C38.0001 78.5304 38.2108 79.0391 38.5858 79.4142C38.9609 79.7892 39.4696 80 40 80H52C52.5304 80 53.0391 79.7892 53.4142 79.4142C53.7892 79.0391 54 78.5304 54 78V58C54 56.3407 54.4528 54.6901 55.25 53.6094C56.0472 52.5287 57.0529 51.8801 58.9648 51.9141C60.9363 51.948 61.98 52.6233 62.7695 53.6836C63.5591 54.7439 64 56.3333 64 58V78C64.0001 78.5304 64.2108 79.0391 64.5859 79.4142C64.9609 79.7892 65.4696 80 66 80H78C78.5304 80 79.0391 79.7892 79.4142 79.4142C79.7892 79.0391 80 78.5304 80 78V56.5234C80 50.6004 78.2456 45.9087 75.2383 42.7344C72.231 39.5601 68.0484 38 63.625 38C59.421 38 56.2217 39.4098 54 40.8477V40C54 39.4696 53.7892 38.9609 53.4142 38.5858C53.0391 38.2108 52.5304 38.0001 52 38H40ZM24 42H32V66.2695V76H24V42ZM42 42H50V45.1211C50.0001 45.5405 50.1321 45.9492 50.3772 46.2895C50.6223 46.6298 50.9681 46.8844 51.3658 47.0174C51.7636 47.1505 52.193 47.1551 52.5935 47.0307C52.994 46.9063 53.3453 46.6592 53.5977 46.3242C53.5977 46.3242 56.7384 42 63.625 42C67.1317 42 70.1387 43.1652 72.3359 45.4844C74.5332 47.8036 76 51.3765 76 56.5234V76H68V58C68 55.6667 67.4409 53.2542 65.9805 51.293C64.52 49.3317 62.0637 47.9662 59.0352 47.9141C55.9911 47.86 53.495 49.254 52.0313 51.2383C50.5675 53.2226 50 55.6593 50 58V76H42V42Z" fill="#FEF6E5"/>
</svg>
